# xmcd
#
# Track frame offsets:
#	150
#	17402
#	36220
#	50636
#	69854
#	87261
#	103637
#	121591
#	137283
#	158217
#	174425
#
# Disc length: 2527 seconds
#
# Revision: 0
# Processed by: cddbd v1.4PL0 Copyright (c) Steve Scherf et al.
# Submitted via: audiograbber 1.82.02
#
DISCID=7c09dd0b
DTITLE=Elif Karlý - Yeniden
DYEAR=2003
DGENRE=Pop
TTITLE0=Bunaldým
TTITLE1=Son Sözüm
TTITLE2=Esmerim
TTITLE3=Hak Biliyor
TTITLE4=Ölürüm Dönmem Sana
TTITLE5=Sana mi Kaldým
TTITLE6=Yalan Olayým
TTITLE7=Kolay Severim
TTITLE8=Yaz Gülü
TTITLE9=Delikanlý Gibi
TTITLE10=Bunaldým Remix
EXTD=metin@metin.nom.tr
EXTT0=
EXTT1=
EXTT2=
EXTT3=
EXTT4=
EXTT5=
EXTT6=
EXTT7=
EXTT8=
EXTT9=
EXTT10=
PLAYORDER=
